<svg width="81" height="72" viewBox="0 0 81 72" fill="none" xmlns="http://www.w3.org/2000/svg">
<path d="M63.6694 17.4633L53.7523 3.62954C53.0172 2.60637 52.0403 1.76709 50.9024 1.18124C49.7645 0.595391 48.4984 0.279837 47.209 0.260731L28.3888 0H28.35C18.6335 0 11.1785 1.56944 6.37706 9.22889C1.90688 16.3586 0 28.5036 0 49.8379V52.4452H6.16899L2.1978 72H7.70074L11.6719 52.4452H13.5C17.9097 52.4832 22.158 50.8448 25.3274 47.8837C28.1926 45.2363 30.2592 41.6144 31.3043 37.4098L31.3138 37.372L35.9448 15.9429H30.4283L26.0444 36.229C24.7092 41.5545 20.7168 47.2306 13.5 47.2306H5.41013C5.55677 28.7731 7.29709 17.8301 10.9966 11.9286C14.1016 6.97471 18.6401 5.21625 28.3313 5.2138L47.1314 5.47453C47.5612 5.48085 47.9832 5.58601 48.3625 5.7813C48.7419 5.97659 49.0675 6.25638 49.3125 6.59747L60.5306 22.2444L75.6 24.6699V27.4334L73.087 40.3756C72.3453 44.1955 71.0775 46.1197 65.8783 46.7228L44.5642 50.2441L44.4233 72H49.8233L49.9358 54.6462L66.5915 51.8923C70.3647 51.4443 73.1486 50.27 75.1008 48.3035C76.7698 46.6221 77.7855 44.474 78.3947 41.3368L81 27.9181V20.2524L63.6694 17.4633Z" fill="white"/>
</svg>
